<svg xmlns="http://www.w3.org/2000/svg" xmlns:xlink="http://www.w3.org/1999/xlink" width="1587" zoomAndPan="magnify" viewBox="0 0 1190.25 1683.749945" height="2245" preserveAspectRatio="xMidYMid meet" version="1.0"><defs><clipPath id="062d140c0d"><path d="M 488 558 L 741 558 L 741 1145.5 L 488 1145.5 Z M 488 558 " clip-rule="nonzero"/></clipPath><clipPath id="443b11ecba"><path d="M 536 472.140625 L 686 472.140625 L 686 802 L 536 802 Z M 536 472.140625 " clip-rule="nonzero"/></clipPath></defs><g clip-path="url(#062d140c0d)"><path fill="#181d23" d="M 530.871094 804.0625 L 532.0625 801.683594 L 534.4375 764.804688 L 540.382812 739.820312 L 543.949219 702.941406 L 548.703125 708.890625 L 538.003906 751.71875 L 540.382812 780.269531 L 534.4375 802.871094 L 532.0625 815.957031 Z M 547.515625 1109.800781 C 548.703125 1101.472656 549.890625 1095.523438 557.023438 1086.007812 L 559.402344 1080.058594 L 560.589844 1050.316406 L 567.722656 1017.007812 L 573.664062 987.265625 C 574.855469 980.128906 573.664062 972.988281 576.042969 967.042969 C 578.421875 958.714844 583.175781 950.386719 583.175781 940.871094 L 584.363281 936.113281 L 592.683594 918.265625 L 601.003906 901.613281 C 604.570312 896.851562 611.703125 894.472656 616.457031 898.042969 C 623.589844 902.800781 630.722656 907.558594 631.910156 917.078125 C 634.289062 933.730469 641.421875 950.386719 646.175781 965.851562 L 654.496094 1003.921875 L 660.441406 1036.042969 L 667.570312 1077.679688 C 668.761719 1088.386719 668.761719 1099.09375 674.703125 1107.417969 L 675.894531 1116.9375 C 678.269531 1127.644531 668.761719 1145.488281 678.269531 1145.488281 L 740.082031 1145.488281 L 734.136719 1131.210938 L 711.554688 1113.367188 C 705.609375 1107.417969 704.421875 1099.09375 705.609375 1090.765625 L 705.609375 1064.59375 C 704.421875 1055.074219 705.609375 1045.558594 700.855469 1037.230469 L 700.855469 1014.628906 L 697.289062 967.042969 L 696.101562 934.921875 L 694.910156 931.351562 L 690.15625 915.886719 L 690.15625 900.421875 L 687.78125 861.164062 L 683.023438 804.0625 L 681.835938 779.078125 L 675.894531 758.855469 L 674.703125 739.820312 L 675.894531 735.0625 L 679.457031 698.183594 L 679.457031 718.40625 L 681.835938 738.632812 L 691.347656 775.511719 L 697.289062 826.664062 L 698.476562 840.941406 C 699.667969 848.078125 713.929688 848.078125 717.496094 845.699219 C 723.441406 840.941406 725.816406 837.371094 725.816406 825.476562 L 725.816406 804.0625 L 721.0625 771.941406 L 721.0625 714.839844 L 717.496094 674.390625 L 711.554688 644.648438 L 703.234375 619.667969 L 678.269531 580.410156 L 662.816406 569.703125 L 658.0625 558.996094 L 568.910156 585.167969 L 527.308594 603.011719 L 505.910156 691.046875 L 508.289062 799.300781 L 502.34375 799.300781 L 514.230469 837.371094 C 511.855469 846.886719 518.984375 849.269531 529.683594 850.457031 L 528.496094 870.679688 L 528.496094 894.472656 L 526.117188 945.628906 C 524.929688 957.523438 528.496094 969.421875 522.550781 980.128906 L 521.363281 984.886719 L 521.363281 1022.957031 L 515.417969 1090.765625 C 514.230469 1100.28125 515.417969 1107.417969 508.289062 1116.9375 C 508.289062 1116.9375 491.644531 1143.109375 488.078125 1145.488281 L 553.457031 1145.488281 C 553.457031 1145.488281 547.515625 1118.125 547.515625 1109.800781 " fill-opacity="1" fill-rule="nonzero"/></g><path fill="#d9e3e8" d="M 510.664062 767.183594 L 508.289062 807.628906 L 502.34375 799.300781 L 498.777344 767.183594 L 498.777344 721.976562 L 497.589844 713.648438 L 498.777344 688.667969 L 503.53125 660.113281 L 503.53125 656.546875 L 513.042969 624.425781 L 521.363281 603.011719 C 522.550781 598.253906 524.929688 595.875 527.308594 593.496094 L 535.628906 586.355469 L 540.382812 585.167969 C 533.25 597.0625 554.648438 591.117188 558.210938 597.0625 C 567.722656 619.667969 560.589844 644.648438 549.890625 672.011719 C 532.0625 717.21875 516.609375 727.925781 510.664062 767.183594 Z M 595.0625 475.71875 C 596.25 479.289062 603.382812 475.71875 606.949219 474.53125 C 598.628906 510.21875 591.496094 538.769531 597.4375 573.269531 C 579.609375 588.734375 573.664062 580.410156 549.890625 578.03125 L 554.648438 574.460938 L 559.402344 549.476562 L 564.15625 531.632812 L 572.476562 501.890625 L 585.550781 480.480469 L 595.0625 475.71875 " fill-opacity="1" fill-rule="nonzero"/><path fill="#8c52ff" d="M 677.082031 607.769531 C 674.703125 594.683594 672.328125 597.0625 666.382812 583.976562 L 677.082031 579.21875 L 678.269531 580.410156 L 692.535156 598.253906 L 700.855469 613.71875 L 704.421875 622.046875 L 699.667969 625.613281 L 693.722656 639.890625 L 699.667969 637.511719 L 709.175781 643.460938 L 709.175781 660.113281 L 705.609375 676.769531 L 700.855469 672.011719 L 693.722656 682.71875 L 715.121094 675.578125 L 715.121094 696.992188 L 717.496094 696.992188 L 712.742188 702.941406 L 718.6875 706.511719 L 713.929688 711.269531 L 721.0625 718.40625 L 707.988281 718.40625 L 712.742188 726.734375 L 706.796875 730.304688 L 710.363281 735.0625 L 706.796875 738.632812 L 709.175781 738.632812 L 712.742188 752.90625 L 706.796875 767.183594 L 717.496094 764.804688 L 721.0625 795.734375 L 716.308594 808.820312 L 719.875 827.855469 L 698.476562 820.714844 L 694.910156 773.128906 L 692.535156 767.183594 L 688.96875 755.285156 L 684.214844 730.304688 L 683.023438 717.21875 L 683.023438 693.425781 L 687.78125 648.21875 L 681.835938 631.5625 L 666.382812 681.527344 L 652.117188 691.046875 L 640.230469 700.5625 L 641.421875 702.941406 L 653.308594 692.234375 L 667.570312 691.046875 L 667.570312 700.5625 L 665.195312 698.183594 L 666.382812 701.753906 L 661.628906 714.839844 L 650.929688 718.40625 L 637.855469 724.355469 L 634.289062 749.335938 L 658.0625 736.25 L 664.007812 732.683594 L 662.816406 738.632812 L 656.875 750.527344 L 656.875 760.042969 L 655.683594 771.941406 L 665.195312 782.648438 L 656.875 783.835938 L 655.683594 781.457031 L 658.0625 783.835938 L 649.742188 798.113281 L 633.101562 800.492188 L 606.949219 799.300781 L 602.195312 798.113281 L 567.722656 798.113281 L 558.210938 692.234375 C 568.910156 681.527344 606.949219 642.269531 604.570312 598.253906 C 620.023438 593.496094 641.421875 588.734375 661.628906 586.355469 M 520.175781 814.769531 L 518.984375 812.390625 L 522.550781 811.199219 L 511.855469 806.441406 L 513.042969 776.699219 C 516.609375 712.457031 528.496094 680.339844 530.871094 639.890625 L 540.382812 644.648438 L 542.757812 658.925781 L 545.136719 670.820312 L 545.136719 699.371094 L 541.570312 698.183594 L 540.382812 702.941406 L 541.570312 719.597656 L 529.683594 736.25 L 538.003906 739.820312 L 530.871094 757.664062 L 529.683594 761.234375 L 530.871094 800.492188 L 520.175781 814.769531 M 652.117188 574.460938 L 628.34375 573.269531 C 620.023438 566.132812 616.457031 564.945312 611.703125 556.617188 L 640.230469 491.1875 L 643.796875 492.375 L 647.363281 497.132812 L 658.0625 558.996094 L 652.117188 574.460938 " fill-opacity="1" fill-rule="nonzero"/><path fill="#8c52ff" d="M 605.761719 576.839844 L 628.34375 575.648438 L 653.308594 582.789062 L 655.683594 588.734375 L 628.34375 586.355469 L 605.761719 581.597656 M 631.910156 481.667969 L 641.421875 486.425781 L 640.230469 491.1875 L 630.722656 494.753906 M 672.328125 600.632812 L 677.082031 613.71875 L 674.703125 614.910156 L 672.328125 600.632812 M 652.117188 574.460938 L 658.0625 580.410156 Z M 578.421875 751.71875 L 577.230469 757.664062 L 574.855469 756.476562 L 578.421875 751.71875 M 591.496094 661.304688 L 587.929688 660.113281 L 589.117188 658.925781 L 591.496094 661.304688 M 624.777344 562.5625 L 623.589844 564.945312 L 622.402344 563.753906 L 624.777344 562.5625 M 586.742188 795.734375 L 585.550781 794.542969 L 585.550781 793.355469 L 586.742188 794.542969 L 586.742188 795.734375 M 672.328125 600.632812 L 667.570312 598.253906 L 672.328125 600.632812 M 591.496094 661.304688 L 592.683594 664.875 L 591.496094 661.304688 M 581.988281 756.476562 L 580.796875 756.476562 M 644.988281 627.996094 L 643.796875 626.804688 L 644.988281 627.996094 M 603.382812 731.492188 L 603.382812 730.304688 L 603.382812 731.492188 " fill-opacity="1" fill-rule="nonzero"/><g clip-path="url(#443b11ecba)"><path fill="#5e17eb" d="M 606.949219 578.03125 L 606.949219 580.410156 L 629.535156 585.167969 L 653.308594 587.546875 L 650.929688 582.789062 L 629.535156 576.839844 L 617.648438 578.03125 Z M 602.195312 798.113281 L 595.0625 799.300781 L 536.816406 801.683594 L 541.570312 779.078125 L 539.195312 752.90625 L 546.324219 720.785156 L 549.890625 708.890625 L 545.136719 699.371094 L 545.136719 670.820312 L 542.757812 658.925781 L 548.703125 662.492188 L 548.703125 656.546875 L 546.324219 639.890625 L 545.136719 622.046875 L 548.703125 608.960938 L 542.757812 600.632812 L 538.003906 592.304688 L 540.382812 585.167969 L 549.890625 578.03125 L 585.550781 572.082031 L 593.875 570.890625 L 589.117188 526.875 L 592.683594 505.460938 L 595.0625 498.324219 L 603.382812 475.71875 L 596.25 476.910156 L 595.0625 475.71875 L 597.4375 472.152344 L 615.269531 472.152344 L 622.402344 474.53125 L 631.910156 479.289062 L 631.910156 493.566406 L 640.230469 491.1875 L 637.855469 511.410156 L 636.667969 514.980469 L 629.535156 529.253906 L 625.96875 537.582031 L 624.777344 541.152344 L 618.835938 551.859375 L 617.648438 555.425781 L 615.269531 556.617188 C 624.777344 566.132812 621.214844 561.375 627.15625 564.945312 L 629.535156 572.082031 L 631.910156 570.890625 L 652.117188 574.460938 L 658.0625 580.410156 L 666.382812 583.976562 L 680.648438 597.0625 L 685.402344 607.769531 L 677.082031 633.941406 L 665.195312 644.648438 L 665.195312 630.375 L 659.25 606.582031 L 666.382812 598.253906 L 660.441406 589.925781 L 658.0625 633.941406 L 653.308594 629.183594 L 653.308594 619.667969 L 644.988281 627.996094 L 646.175781 635.132812 L 644.988281 636.320312 L 641.421875 632.753906 L 635.476562 633.941406 L 630.722656 641.082031 L 617.648438 655.355469 L 618.835938 639.890625 L 614.082031 616.097656 L 606.949219 600.632812 L 609.328125 619.667969 L 611.703125 638.703125 L 612.890625 656.546875 L 612.890625 674.390625 L 599.816406 664.875 L 592.683594 664.875 L 598.628906 682.71875 L 611.703125 685.097656 L 608.136719 688.667969 L 611.703125 700.5625 L 610.515625 706.511719 L 602.195312 711.269531 L 573.664062 693.425781 L 590.308594 708.890625 L 593.875 714.839844 L 604.570312 724.355469 L 605.761719 731.492188 L 603.382812 731.492188 L 603.382812 730.304688 L 603.382812 731.492188 L 596.25 741.011719 L 578.421875 751.71875 L 585.550781 757.664062 L 577.230469 763.613281 C 597.4375 770.75 591.496094 790.976562 593.875 795.734375 L 597.4375 790.976562 L 602.195312 798.113281 " fill-opacity="1" fill-rule="nonzero"/></g><path fill="#5e17eb" d="M 591.496094 786.214844 L 591.496094 787.40625 L 590.308594 786.214844 M 508.289062 807.628906 L 505.910156 767.183594 L 508.289062 742.199219 L 507.097656 729.113281 L 503.53125 721.976562 L 511.855469 719.597656 L 516.609375 689.855469 L 509.476562 676.769531 L 523.742188 674.390625 L 523.742188 643.460938 L 526.117188 633.941406 L 528.496094 624.425781 L 527.308594 613.71875 L 539.195312 644.648438 L 533.25 642.269531 L 536.816406 660.113281 L 536.816406 674.390625 L 532.0625 712.457031 L 522.550781 718.40625 L 533.25 727.925781 L 515.417969 751.71875 L 528.496094 756.476562 L 521.363281 761.234375 L 523.742188 777.890625 L 520.175781 805.25 L 522.550781 811.199219 L 518.984375 812.390625 L 508.289062 807.628906 M 640.230469 491.1875 L 641.421875 486.425781 L 643.796875 492.375 L 640.230469 491.1875 " fill-opacity="1" fill-rule="nonzero"/></svg>