            <svg version="1.1" baseProfile="tiny" id="awards" xmlns="http://www.w3.org/2000/svg" xmlns:xlink="http://www.w3.org/1999/xlink" x="0px" y="0px" viewBox="0 0 304.1 450.9" xml:space="preserve">
            
              <!--   SPOTLIGHTS -->
            	<g id="spotlight2" class="spotlight">
            		<line id="spotlight2-2" fill="none" stroke="#FEFFF8" stroke-width="3" stroke-linecap="round" stroke-linejoin="round" x1="85.9" y1="1.5" x2="65.8" y2="449.4"/>
            		<line id="spotlight2-1" fill="none" stroke="#FEFFF8" stroke-width="3" stroke-linecap="round" stroke-linejoin="round" x1="53.8" y1="449.4" x2="33.8" y2="1.5"/>
            	</g>
            
            	<g id="spotlight1" class="spotlight">
            		<line id="spotlight1-2" fill="none" stroke="#FEFFF8" stroke-width="3" stroke-linecap="round" stroke-linejoin="round" x1="269.1" y1="1.5" x2="249.1" y2="449.4"/>
            		<line id="spotlight1-1" fill="none" stroke="#FEFFF8" stroke-width="3" stroke-linecap="round" stroke-linejoin="round" x1="237.1" y1="449.4" x2="217.1" y2="1.5"/>
            	</g>
            
              <!--   TROPHY -->
              <linearGradient id="trophy_1" gradientUnits="userSpaceOnUse" x1="0" y1="297.8564" x2="304.0942" y2="297.8564">
                <stop offset="0" style="stop-color:#A4C339"/>
                <stop offset="0.2379" style="stop-color:#A0C13A"/>
                <stop offset="1" style="stop-color:#6EA644"/>
              </linearGradient>
            
              <path id="trophy-body" fill="none" stroke="url(#trophy_1)" stroke-width="3" stroke-linecap="round" stroke-linejoin="round" d="
                M302.6,181.9l0-3.2c0-3.5-2.8-6.3-6.3-6.3h-25.4c0.2-6,0.4-12.2,0.4-18.8c0-3.5-2.8-6.3-6.3-6.3H39.2c-3.5,0-6.3,2.8-6.3,6.3
            		c0,6.6,0.2,12.8,0.4,18.8H7.9c-3.5,0-6.3,2.8-6.3,6.3l0,3.4c-0.2,17.2-0.8,62.7,23.4,87.2c9.7,9.8,22.2,14.9,37.2,15.7
            		c13.3,19.1,29,28.6,42.4,36.7c17,10.2,28.2,17,28.2,38.8c-0.8,41.9-19.6,50.3-49.7,50.3c-3.5,0-6.3,2.8-6.3,6.3v25.1
            		c0,3.5,2.8,6.3,6.3,6.3h138c3.5,0,6.3-2.8,6.3-6.3V417c0-3.5-2.8-6.3-6.3-6.3c-35.9,0-50.6-14.5-50.6-50.2c0-22,11.4-28.8,28.6-39.2
            		c13.5-8.1,29.1-17.6,42.5-36.4c15-0.8,27.6-5.9,37.4-15.7C303.3,244.7,302.8,199.1,302.6,181.9z M33.9,260.5
            		c-19.4-19.7-20-58.1-19.8-75.5h20c2.6,39.7,10.1,67,20.1,86.4C46.2,269.7,39.5,266.2,33.9,260.5z M249.7,271.4
            		c10.1-19.4,17.8-46.7,20.4-86.4H290c0.1,17.5-0.6,55.8-20.1,75.5C264.4,266.1,257.6,269.6,249.7,271.4z"/>
              
              <!--   TROPHY STAR -->
            	<linearGradient id="trophy-star_1" gradientUnits="userSpaceOnUse" x1="113.9369" y1="225.8782" x2="189.36" y2="225.8782">
            		<stop offset="0" style="stop-color:#A4C339"/>
            		<stop offset="0.2379" style="stop-color:#A0C13A"/>
            		<stop offset="1" style="stop-color:#6EA644"/>
            	</linearGradient>
            
            	<path id="trophy-star" fill="none" stroke="url(#trophy-star_1)" stroke-width="3" stroke-linecap="round" stroke-linejoin="round" d="
            		M182.7,212.8h-17.5l-8.9-17.8c-1.8-3.5-7.5-3.5-9.3,0l-8.9,17.8h-17.5c-2.3,0-4.3,1.5-4.9,3.6c-0.7,2.2,0.1,4.5,2,5.8l15.3,10.5
            		l-6.9,19.7c-0.8,2.2,0,4.5,1.8,5.9s4.3,1.3,6.2,0l17.6-13.2l17.6,13.2c0.9,0.7,2,1,3.1,1c1,0,2-0.3,2.9-0.9c1.8-1.2,2.7-3.5,2.1-5.6
            		l-5.5-20.1l14-10.7c1.8-1.3,2.5-3.7,1.8-5.8C186.9,214.2,184.9,212.8,182.7,212.8z"/>
              
              <!--   SPARKLES -->
            	<path id="sparkle1" class="sparkle" fill="none" stroke="#A4A59E" stroke-width="3" stroke-linejoin="round" d="M78.2,262.6c1.3-1.3,2.1-2.9,2.6-4.7
            		c0.1-0.2,0.2-0.5,0.4-0.7c0.1,0.2,0.3,0.4,0.4,0.7c1.3,4.3,4,7,8.3,8.2c0.2,0.1,0.4,0.3,0.6,0.4c-0.2,0.1-0.4,0.3-0.6,0.3
            		c-2.8,0.8-5.1,2.3-6.7,4.8c-0.5,1.2-1.1,2.3-1.6,3.5c-0.1,0.2-0.3,0.4-0.4,0.7c-0.1-0.2-0.3-0.4-0.4-0.6c-1.2-4.3-4-7.1-8.3-8.3
            		c-0.2-0.1-0.4-0.2-0.5-0.3c0.2-0.1,0.3-0.3,0.5-0.4C74.7,265.6,76.7,264.4,78.2,262.6z"/>
            
            	<path id="sparkle2" class="sparkle" fill="none" stroke="#A4A59E" stroke-width="3" stroke-linejoin="round" d="M213.9,190.5c1.4-1.4,2.2-3.1,2.7-5
            		c0.1-0.3,0.3-0.5,0.4-0.7c0.1,0.2,0.4,0.4,0.4,0.7c1.3,4.6,4.3,7.5,8.9,8.8c0.2,0.1,0.4,0.3,0.6,0.4c-0.2,0.1-0.4,0.3-0.6,0.3
            		c-3,0.8-5.5,2.5-7.2,5.1c-0.6,1.2-1.1,2.5-1.7,3.7c-0.1,0.2-0.3,0.5-0.4,0.7c-0.1-0.2-0.3-0.4-0.4-0.6c-1.3-4.6-4.3-7.6-9-8.9
            		c-0.2-0.1-0.4-0.2-0.6-0.4c0.2-0.1,0.4-0.3,0.6-0.4C210.2,193.7,212.3,192.5,213.9,190.5z"/>
            
            	<path id="sparkle3" class="sparkle" fill="none" stroke="#A4A59E" stroke-width="3" stroke-linejoin="round" d="M101.7,166.2c2-2.1,3.2-4.5,3.9-7.2
            		c0.1-0.4,0.4-0.7,0.6-1.1c0.2,0.3,0.5,0.6,0.6,1c1.9,6.6,6.2,10.8,12.8,12.7c0.3,0.1,0.6,0.4,0.9,0.6c-0.3,0.2-0.6,0.4-0.9,0.5
            		c-4.3,1.2-7.9,3.5-10.3,7.3c-0.8,1.8-1.6,3.6-2.5,5.4c-0.2,0.4-0.4,0.7-0.6,1c-0.2-0.3-0.5-0.6-0.6-0.9c-1.9-6.7-6.2-10.9-12.9-12.8
            		c-0.3-0.1-0.5-0.3-0.8-0.5c0.3-0.2,0.5-0.5,0.8-0.6C96.4,170.7,99.4,169,101.7,166.2z"/>
 
            </svg>  