<svg xmlns="http://www.w3.org/2000/svg" xmlns:xlink="http://www.w3.org/1999/xlink" width="1366" zoomAndPan="magnify" viewBox="0 0 1024.5 576" height="768" preserveAspectRatio="xMidYMid meet" version="1.0"><defs><clipPath id="9aac7f538e"><path d="M 404 74 L 621 74 L 621 575.859375 L 404 575.859375 Z M 404 74 " clip-rule="nonzero"/></clipPath><clipPath id="3bd8d786f6"><path d="M 446 0.140625 L 574 0.140625 L 574 283 L 446 283 Z M 446 0.140625 " clip-rule="nonzero"/></clipPath></defs><g clip-path="url(#9aac7f538e)"><path fill="#181d23" d="M 441.460938 284.070312 L 442.476562 282.035156 L 444.511719 250.488281 L 449.589844 229.117188 L 452.640625 197.570312 L 456.703125 202.660156 L 447.558594 239.292969 L 449.589844 263.71875 L 444.511719 283.050781 L 442.476562 294.246094 Z M 455.6875 545.605469 C 456.703125 538.480469 457.71875 533.390625 463.816406 525.25 L 465.847656 520.164062 L 466.867188 494.722656 L 472.960938 466.226562 L 478.042969 440.785156 C 479.058594 434.679688 478.042969 428.574219 480.074219 423.488281 C 482.105469 416.363281 486.171875 409.238281 486.171875 401.097656 L 487.1875 397.027344 L 494.300781 381.761719 L 501.414062 367.515625 C 504.460938 363.445312 510.558594 361.410156 514.625 364.464844 C 520.71875 368.535156 526.816406 372.605469 527.832031 380.746094 C 529.867188 394.992188 535.960938 409.238281 540.027344 422.46875 L 547.140625 455.035156 L 552.21875 482.511719 L 558.316406 518.128906 C 559.332031 527.285156 559.332031 536.445312 564.414062 543.570312 L 565.429688 551.710938 C 567.460938 560.867188 559.332031 576.132812 567.460938 576.132812 L 620.300781 576.132812 L 615.21875 563.921875 L 595.914062 548.65625 C 590.832031 543.570312 589.816406 536.445312 590.832031 529.320312 L 590.832031 506.933594 C 589.816406 498.792969 590.832031 490.652344 586.769531 483.527344 L 586.769531 464.191406 L 583.71875 423.488281 L 582.703125 396.011719 L 581.6875 392.957031 L 577.625 379.726562 L 577.625 366.5 L 575.589844 332.917969 L 571.527344 284.070312 L 570.511719 262.699219 L 565.429688 245.398438 L 564.414062 229.117188 L 565.429688 225.046875 L 568.476562 193.5 L 568.476562 210.800781 L 570.511719 228.101562 L 578.640625 259.648438 L 583.71875 303.40625 L 584.734375 315.617188 C 585.753906 321.722656 597.945312 321.722656 600.996094 319.6875 C 606.074219 315.617188 608.105469 312.5625 608.105469 302.386719 L 608.105469 284.070312 L 604.042969 256.59375 L 604.042969 207.746094 L 600.996094 173.148438 L 595.914062 147.707031 L 588.800781 126.335938 L 567.460938 92.753906 L 554.253906 83.59375 L 550.1875 74.4375 L 473.976562 96.824219 L 438.414062 112.089844 L 420.125 187.394531 L 422.15625 280 L 417.074219 280 L 427.234375 312.5625 C 425.203125 320.703125 431.300781 322.742188 440.445312 323.757812 L 439.429688 341.058594 L 439.429688 361.410156 L 437.398438 405.167969 C 436.382812 415.34375 439.429688 425.523438 434.347656 434.679688 L 433.332031 438.75 L 433.332031 471.316406 L 428.253906 529.320312 C 427.234375 537.460938 428.253906 543.570312 422.15625 551.710938 C 422.15625 551.710938 407.929688 574.097656 404.882812 576.132812 L 460.769531 576.132812 C 460.769531 576.132812 455.6875 552.726562 455.6875 545.605469 " fill-opacity="1" fill-rule="nonzero"/></g><path fill="#d9e3e8" d="M 424.1875 252.523438 L 422.15625 287.121094 L 417.074219 280 L 414.027344 252.523438 L 414.027344 213.851562 L 413.011719 206.730469 L 414.027344 185.359375 L 418.089844 160.933594 L 418.089844 157.882812 L 426.21875 130.40625 L 433.332031 112.089844 C 434.347656 108.019531 436.382812 105.984375 438.414062 103.949219 L 445.527344 97.839844 L 449.589844 96.824219 C 443.496094 107 461.785156 101.914062 464.832031 107 C 472.960938 126.335938 466.867188 147.707031 457.71875 171.113281 C 442.476562 209.78125 429.269531 218.941406 424.1875 252.523438 Z M 496.332031 3.199219 C 497.347656 6.253906 503.445312 3.199219 506.496094 2.183594 C 499.382812 32.710938 493.285156 57.136719 498.367188 86.648438 C 483.125 99.875 478.042969 92.753906 457.71875 90.71875 L 461.785156 87.664062 L 465.847656 66.292969 L 469.914062 51.03125 L 477.027344 25.589844 L 488.203125 7.273438 L 496.332031 3.199219 " fill-opacity="1" fill-rule="nonzero"/><path fill="#8c52ff" d="M 566.445312 116.160156 C 564.414062 104.964844 562.382812 107 557.300781 95.804688 L 566.445312 91.734375 L 567.460938 92.753906 L 579.65625 108.019531 L 586.769531 121.246094 L 589.816406 128.371094 L 585.753906 131.421875 L 580.671875 143.636719 L 585.753906 141.601562 L 593.882812 146.6875 L 593.882812 160.933594 L 590.832031 175.183594 L 586.769531 171.113281 L 580.671875 180.269531 L 598.960938 174.164062 L 598.960938 192.480469 L 600.996094 192.480469 L 596.929688 197.570312 L 602.011719 200.625 L 597.945312 204.695312 L 604.042969 210.800781 L 592.867188 210.800781 L 596.929688 217.921875 L 591.847656 220.976562 L 594.898438 225.046875 L 591.847656 228.101562 L 593.882812 228.101562 L 596.929688 240.3125 L 591.847656 252.523438 L 600.996094 250.488281 L 604.042969 276.945312 L 599.976562 288.140625 L 603.027344 304.421875 L 584.734375 298.316406 L 581.6875 257.609375 L 579.65625 252.523438 L 576.605469 242.347656 L 572.542969 220.976562 L 571.527344 209.78125 L 571.527344 189.429688 L 575.589844 150.757812 L 570.511719 136.511719 L 557.300781 179.253906 L 545.105469 187.394531 L 534.945312 195.535156 L 535.960938 197.570312 L 546.125 188.410156 L 558.316406 187.394531 L 558.316406 195.535156 L 556.285156 193.5 L 557.300781 196.554688 L 553.234375 207.746094 L 544.089844 210.800781 L 532.914062 215.886719 L 529.867188 237.257812 L 550.1875 226.0625 L 555.269531 223.011719 L 554.253906 228.101562 L 549.171875 238.277344 L 549.171875 246.417969 L 548.15625 256.59375 L 556.285156 265.753906 L 549.171875 266.769531 L 548.15625 264.734375 L 550.1875 266.769531 L 543.074219 278.980469 L 528.847656 281.015625 L 506.496094 280 L 502.429688 278.980469 L 472.960938 278.980469 L 464.832031 188.410156 C 473.976562 179.253906 506.496094 145.671875 504.460938 108.019531 C 517.671875 103.949219 535.960938 99.875 553.234375 97.839844 M 432.316406 293.230469 L 431.300781 291.195312 L 434.347656 290.175781 L 425.203125 286.105469 L 426.21875 260.664062 C 429.269531 205.710938 439.429688 178.234375 441.460938 143.636719 L 449.589844 147.707031 L 451.625 159.917969 L 453.65625 170.09375 L 453.65625 194.515625 L 450.605469 193.5 L 449.589844 197.570312 L 450.605469 211.816406 L 440.445312 226.0625 L 447.558594 229.117188 L 441.460938 244.382812 L 440.445312 247.433594 L 441.460938 281.015625 L 432.316406 293.230469 M 545.105469 87.664062 L 524.785156 86.648438 C 517.671875 80.542969 514.625 79.523438 510.558594 72.402344 L 534.945312 16.429688 L 537.996094 17.449219 L 541.042969 21.519531 L 550.1875 74.4375 L 545.105469 87.664062 " fill-opacity="1" fill-rule="nonzero"/><path fill="#8c52ff" d="M 505.476562 89.699219 L 524.785156 88.683594 L 546.125 94.789062 L 548.15625 99.875 L 524.785156 97.839844 L 505.476562 93.769531 M 527.832031 8.289062 L 535.960938 12.359375 L 534.945312 16.429688 L 526.816406 19.484375 M 562.382812 110.054688 L 566.445312 121.246094 L 564.414062 122.265625 L 562.382812 110.054688 M 545.105469 87.664062 L 550.1875 92.753906 Z M 482.105469 239.292969 L 481.089844 244.382812 L 479.058594 243.363281 L 482.105469 239.292969 M 493.285156 161.953125 L 490.234375 160.933594 L 491.253906 159.917969 L 493.285156 161.953125 M 521.734375 77.488281 L 520.71875 79.523438 L 519.703125 78.507812 L 521.734375 77.488281 M 489.21875 276.945312 L 488.203125 275.929688 L 488.203125 274.910156 L 489.21875 275.929688 L 489.21875 276.945312 M 562.382812 110.054688 L 558.316406 108.019531 L 562.382812 110.054688 M 493.285156 161.953125 L 494.300781 165.007812 L 493.285156 161.953125 M 485.15625 243.363281 L 484.140625 243.363281 M 539.011719 133.460938 L 537.996094 132.441406 L 539.011719 133.460938 M 503.445312 221.992188 L 503.445312 220.976562 L 503.445312 221.992188 " fill-opacity="1" fill-rule="nonzero"/><g clip-path="url(#3bd8d786f6)"><path fill="#5e17eb" d="M 506.496094 90.71875 L 506.496094 92.753906 L 525.800781 96.824219 L 546.125 98.859375 L 544.089844 94.789062 L 525.800781 89.699219 L 515.640625 90.71875 Z M 502.429688 278.980469 L 496.332031 280 L 446.542969 282.035156 L 450.605469 262.699219 L 449.589844 251.503906 L 448.574219 240.3125 L 454.671875 212.835938 L 457.71875 202.660156 L 453.65625 194.515625 L 453.65625 170.09375 L 451.625 159.917969 L 456.703125 162.96875 L 456.703125 157.882812 L 454.671875 143.636719 L 453.65625 128.371094 L 456.703125 117.175781 L 451.625 110.054688 L 447.558594 102.929688 L 449.589844 96.824219 L 457.71875 90.71875 L 488.203125 85.628906 L 495.316406 84.613281 L 491.253906 46.960938 L 494.300781 28.640625 L 496.332031 22.535156 L 503.445312 3.199219 L 497.347656 4.21875 L 496.332031 3.199219 L 498.367188 0.148438 L 513.605469 0.148438 L 519.703125 2.183594 L 527.832031 6.253906 L 527.832031 18.464844 L 534.945312 16.429688 L 532.914062 33.730469 L 531.898438 36.78125 L 525.800781 48.996094 L 522.753906 56.117188 L 521.734375 59.171875 L 516.65625 68.328125 L 515.640625 71.382812 L 513.605469 72.402344 C 521.734375 80.542969 518.6875 76.472656 523.769531 79.523438 L 525.800781 85.628906 L 527.832031 84.613281 L 545.105469 87.664062 L 550.1875 92.753906 L 557.300781 95.804688 L 569.496094 107 L 573.558594 116.160156 L 566.445312 138.546875 L 556.285156 147.707031 L 556.285156 135.496094 L 551.203125 115.140625 L 557.300781 108.019531 L 552.21875 100.894531 L 550.1875 138.546875 L 546.125 134.476562 L 546.125 126.335938 L 539.011719 133.460938 L 540.027344 139.566406 L 539.011719 140.582031 L 535.960938 137.53125 L 530.882812 138.546875 L 526.816406 144.652344 L 515.640625 156.863281 L 516.65625 143.636719 L 512.589844 123.28125 L 506.496094 110.054688 L 510.558594 142.617188 L 511.574219 157.882812 L 511.574219 173.148438 L 500.398438 165.007812 L 494.300781 165.007812 L 499.382812 180.269531 L 510.558594 182.304688 L 507.511719 185.359375 L 510.558594 195.535156 L 509.542969 200.625 L 502.429688 204.695312 L 478.042969 189.429688 L 492.269531 202.660156 L 495.316406 207.746094 L 504.460938 215.886719 L 505.476562 221.992188 L 503.445312 221.992188 L 503.445312 220.976562 L 503.445312 221.992188 L 497.347656 230.136719 L 482.105469 239.292969 L 488.203125 244.382812 L 481.089844 249.46875 C 498.367188 255.574219 493.285156 272.875 495.316406 276.945312 L 498.367188 272.875 L 502.429688 278.980469 " fill-opacity="1" fill-rule="nonzero"/></g><path fill="#5e17eb" d="M 493.285156 268.804688 L 493.285156 269.824219 L 492.269531 268.804688 M 422.15625 287.121094 L 420.125 252.523438 L 422.15625 231.152344 L 421.140625 219.957031 L 418.089844 213.851562 L 425.203125 211.816406 L 429.269531 186.375 L 423.171875 175.183594 L 435.367188 173.148438 L 435.367188 146.6875 L 439.429688 130.40625 L 438.414062 121.246094 L 448.574219 147.707031 L 443.496094 145.671875 L 446.542969 160.933594 L 446.542969 173.148438 L 442.476562 205.710938 L 434.347656 210.800781 L 443.496094 218.941406 L 428.253906 239.292969 L 439.429688 243.363281 L 433.332031 247.433594 L 435.367188 261.683594 L 432.316406 285.085938 L 434.347656 290.175781 L 431.300781 291.195312 L 422.15625 287.121094 M 534.945312 16.429688 L 535.960938 12.359375 L 537.996094 17.449219 L 534.945312 16.429688 " fill-opacity="1" fill-rule="nonzero"/></svg>