<svg xmlns="http://www.w3.org/2000/svg" xmlns:xlink="http://www.w3.org/1999/xlink" width="1280" zoomAndPan="magnify" viewBox="0 0 960 555.000006" height="740" preserveAspectRatio="xMidYMid meet" version="1.0"><path fill="#181d23" d="M 412.011719 273.085938 L 412.992188 271.128906 L 414.953125 240.785156 L 419.851562 220.230469 L 422.789062 189.890625 L 426.710938 194.785156 L 417.890625 230.019531 L 419.851562 253.511719 L 414.953125 272.105469 L 412.992188 282.875 Z M 425.730469 524.632812 C 426.710938 517.78125 427.6875 512.886719 433.566406 505.054688 L 435.527344 500.160156 L 436.507812 475.691406 L 442.386719 448.285156 L 447.285156 423.816406 C 448.265625 417.945312 447.285156 412.070312 449.246094 407.179688 C 451.203125 400.328125 455.125 393.476562 455.125 385.644531 L 456.101562 381.730469 L 462.960938 367.046875 L 469.820312 353.34375 C 472.761719 349.429688 478.640625 347.472656 482.558594 350.410156 C 488.4375 354.324219 494.316406 358.238281 495.296875 366.070312 C 497.253906 379.773438 503.132812 393.476562 507.054688 406.199219 L 513.910156 437.519531 L 518.8125 463.949219 L 524.6875 498.203125 C 525.667969 507.011719 525.667969 515.824219 530.566406 522.675781 L 531.546875 530.503906 C 533.507812 539.3125 525.667969 553.996094 533.507812 553.996094 L 584.457031 553.996094 L 579.558594 542.25 L 560.941406 527.566406 C 556.042969 522.675781 555.0625 515.824219 556.042969 508.972656 L 556.042969 487.4375 C 555.0625 479.609375 556.042969 471.777344 552.125 464.925781 L 552.125 446.328125 L 549.183594 407.179688 L 548.203125 380.75 L 547.226562 377.816406 L 543.304688 365.089844 L 543.304688 352.367188 L 541.347656 320.066406 L 537.425781 273.085938 L 536.445312 252.53125 L 531.546875 235.890625 L 530.566406 220.230469 L 531.546875 216.316406 L 534.488281 185.976562 L 534.488281 202.613281 L 536.445312 219.253906 L 544.285156 249.59375 L 549.183594 291.683594 L 550.164062 303.429688 C 551.144531 309.300781 562.902344 309.300781 565.839844 307.34375 C 570.738281 303.429688 572.699219 300.492188 572.699219 290.703125 L 572.699219 273.085938 L 568.78125 246.660156 L 568.78125 199.675781 L 565.839844 166.398438 L 560.941406 141.929688 L 554.082031 121.375 L 533.507812 89.074219 L 520.769531 80.265625 L 516.851562 71.457031 L 443.367188 92.992188 L 409.074219 107.671875 L 391.4375 180.101562 L 393.394531 269.171875 L 388.496094 269.171875 L 398.296875 300.492188 C 396.335938 308.320312 402.214844 310.28125 411.03125 311.257812 L 410.050781 327.898438 L 410.050781 347.472656 L 408.09375 389.558594 C 407.113281 399.347656 410.050781 409.136719 405.152344 417.945312 L 404.175781 421.859375 L 404.175781 453.179688 L 399.273438 508.972656 C 398.296875 516.800781 399.273438 522.675781 393.394531 530.503906 C 393.394531 530.503906 379.679688 552.039062 376.738281 553.996094 L 430.628906 553.996094 C 430.628906 553.996094 425.730469 531.484375 425.730469 524.632812 " fill-opacity="1" fill-rule="nonzero"/><path fill="#d9e3e8" d="M 395.355469 242.742188 L 393.394531 276.023438 L 388.496094 269.171875 L 385.558594 242.742188 L 385.558594 205.550781 L 384.578125 198.699219 L 385.558594 178.144531 L 389.476562 154.652344 L 389.476562 151.71875 L 397.316406 125.289062 L 404.175781 107.671875 C 405.152344 103.757812 407.113281 101.800781 409.074219 99.84375 L 415.929688 93.96875 L 419.851562 92.992188 C 413.972656 102.777344 431.609375 97.882812 434.546875 102.777344 C 442.386719 121.375 436.507812 141.929688 427.6875 164.441406 C 412.992188 201.636719 400.253906 210.445312 395.355469 242.742188 Z M 464.921875 2.941406 C 465.902344 5.878906 471.78125 2.941406 474.71875 1.964844 C 467.859375 31.328125 461.980469 54.820312 466.882812 83.203125 C 452.183594 95.925781 447.285156 89.074219 427.6875 87.117188 L 431.609375 84.183594 L 435.527344 63.628906 L 439.445312 48.945312 L 446.304688 24.476562 L 457.082031 6.859375 L 464.921875 2.941406 " fill-opacity="1" fill-rule="nonzero"/><path fill="#8c52ff" d="M 532.527344 111.585938 C 530.566406 100.820312 528.609375 102.777344 523.710938 92.011719 L 532.527344 88.097656 L 533.507812 89.074219 L 545.265625 103.757812 L 552.125 116.480469 L 555.0625 123.332031 L 551.144531 126.269531 L 546.246094 138.015625 L 551.144531 136.058594 L 558.984375 140.949219 L 558.984375 154.652344 L 556.042969 168.355469 L 552.125 164.441406 L 546.246094 173.25 L 563.882812 167.378906 L 563.882812 184.996094 L 565.839844 184.996094 L 561.921875 189.890625 L 566.820312 192.824219 L 562.902344 196.742188 L 568.78125 202.613281 L 558.003906 202.613281 L 561.921875 209.464844 L 557.023438 212.402344 L 559.960938 216.316406 L 557.023438 219.253906 L 558.984375 219.253906 L 561.921875 231 L 557.023438 242.742188 L 565.839844 240.785156 L 568.78125 266.234375 L 564.859375 277 L 567.800781 292.660156 L 550.164062 286.789062 L 547.226562 247.636719 L 545.265625 242.742188 L 542.324219 232.957031 L 538.40625 212.402344 L 537.425781 201.636719 L 537.425781 182.058594 L 541.347656 144.867188 L 536.445312 131.164062 L 523.710938 172.273438 L 511.953125 180.101562 L 502.152344 187.933594 L 503.132812 189.890625 L 512.933594 181.082031 L 524.6875 180.101562 L 524.6875 187.933594 L 522.730469 185.976562 L 523.710938 188.910156 L 519.789062 199.675781 L 510.972656 202.613281 L 500.195312 207.507812 L 497.253906 228.0625 L 516.851562 217.296875 L 521.75 214.359375 L 520.769531 219.253906 L 515.871094 229.039062 L 515.871094 236.871094 L 514.890625 246.660156 L 522.730469 255.46875 L 515.871094 256.445312 L 514.890625 254.488281 L 516.851562 256.445312 L 509.992188 268.191406 L 496.273438 270.148438 L 474.71875 269.171875 L 470.800781 268.191406 L 442.386719 268.191406 L 434.546875 181.082031 C 443.367188 172.273438 474.71875 139.972656 472.761719 103.757812 C 485.496094 99.84375 503.132812 95.925781 519.789062 93.96875 M 403.195312 281.894531 L 402.214844 279.9375 L 405.152344 278.957031 L 396.335938 275.042969 L 397.316406 250.574219 C 400.253906 197.71875 410.050781 171.292969 412.011719 138.015625 L 419.851562 141.929688 L 421.808594 153.675781 L 423.769531 163.460938 L 423.769531 186.953125 L 420.832031 185.976562 L 419.851562 189.890625 L 420.832031 203.59375 L 411.03125 217.296875 L 417.890625 220.230469 L 412.011719 234.914062 L 411.03125 237.851562 L 412.011719 270.148438 L 403.195312 281.894531 M 511.953125 84.183594 L 492.355469 83.203125 C 485.496094 77.332031 482.558594 76.351562 478.640625 69.5 L 502.152344 15.667969 L 505.09375 16.644531 L 508.03125 20.5625 L 516.851562 71.457031 L 511.953125 84.183594 " fill-opacity="1" fill-rule="nonzero"/><path fill="#8c52ff" d="M 473.738281 86.140625 L 492.355469 85.160156 L 512.933594 91.035156 L 514.890625 95.925781 L 492.355469 93.96875 L 473.738281 90.054688 M 495.296875 7.835938 L 503.132812 11.753906 L 502.152344 15.667969 L 494.316406 18.605469 M 528.609375 105.714844 L 532.527344 116.480469 L 530.566406 117.460938 L 528.609375 105.714844 M 511.953125 84.183594 L 516.851562 89.074219 Z M 451.203125 230.019531 L 450.222656 234.914062 L 448.265625 233.933594 L 451.203125 230.019531 M 461.980469 155.632812 L 459.042969 154.652344 L 460.023438 153.675781 L 461.980469 155.632812 M 489.417969 74.394531 L 488.4375 76.351562 L 487.457031 75.371094 L 489.417969 74.394531 M 458.0625 266.234375 L 457.082031 265.253906 L 457.082031 264.277344 L 458.0625 265.253906 L 458.0625 266.234375 M 528.609375 105.714844 L 524.6875 103.757812 L 528.609375 105.714844 M 461.980469 155.632812 L 462.960938 158.570312 L 461.980469 155.632812 M 454.144531 233.933594 L 453.164062 233.933594 M 506.074219 128.226562 L 505.09375 127.246094 L 506.074219 128.226562 M 471.78125 213.378906 L 471.78125 212.402344 L 471.78125 213.378906 " fill-opacity="1" fill-rule="nonzero"/><path fill="#5e17eb" d="M 474.71875 87.117188 L 474.71875 89.074219 L 493.335938 92.992188 L 512.933594 94.949219 L 510.972656 91.035156 L 493.335938 86.140625 L 483.539062 87.117188 Z M 470.800781 268.191406 L 464.921875 269.171875 L 416.910156 271.128906 L 420.832031 252.53125 L 418.871094 231 L 424.75 204.570312 L 427.6875 194.785156 L 423.769531 186.953125 L 423.769531 163.460938 L 421.808594 153.675781 L 426.710938 156.609375 L 426.710938 151.71875 L 424.75 138.015625 L 423.769531 123.332031 L 426.710938 112.566406 L 421.808594 105.714844 L 417.890625 98.863281 L 419.851562 92.992188 L 427.6875 87.117188 L 457.082031 82.222656 L 463.941406 81.246094 L 460.023438 45.03125 L 462.960938 27.414062 L 464.921875 21.539062 L 471.78125 2.941406 L 465.902344 3.921875 L 464.921875 2.941406 L 466.882812 0.0078125 L 481.578125 0.0078125 L 487.457031 1.964844 L 495.296875 5.878906 L 495.296875 17.625 L 502.152344 15.667969 L 500.195312 32.304688 L 499.214844 35.242188 L 493.335938 46.988281 L 490.394531 53.839844 L 489.417969 56.777344 L 484.515625 65.585938 L 483.539062 68.519531 L 481.578125 69.5 C 489.417969 77.332031 486.476562 73.414062 491.375 76.351562 L 493.335938 82.222656 L 495.296875 81.246094 L 511.953125 84.183594 L 516.851562 89.074219 L 523.710938 92.011719 L 535.46875 102.777344 L 539.386719 111.585938 L 532.527344 133.121094 L 522.730469 141.929688 L 522.730469 130.183594 L 517.832031 110.609375 L 523.710938 103.757812 L 518.8125 96.90625 L 516.851562 133.121094 L 512.933594 129.207031 L 512.933594 121.375 L 506.074219 128.226562 L 507.054688 134.097656 L 506.074219 135.078125 L 503.132812 132.140625 L 498.234375 133.121094 L 494.316406 138.992188 L 483.539062 150.738281 L 484.515625 138.015625 L 480.597656 118.4375 L 474.71875 105.714844 L 478.640625 137.035156 L 479.617188 151.71875 L 479.617188 166.398438 L 468.839844 158.570312 L 462.960938 158.570312 L 467.859375 173.25 L 478.640625 175.207031 L 475.699219 178.144531 L 478.640625 187.933594 L 477.660156 192.824219 L 470.800781 196.742188 L 447.285156 182.058594 L 461.003906 194.785156 L 463.941406 199.675781 L 472.761719 207.507812 L 473.738281 213.378906 L 471.78125 213.378906 L 471.78125 212.402344 L 471.78125 213.378906 L 465.902344 221.210938 L 451.203125 230.019531 L 457.082031 234.914062 L 450.222656 239.808594 C 466.882812 245.679688 461.980469 262.320312 463.941406 266.234375 L 466.882812 262.320312 L 470.800781 268.191406 " fill-opacity="1" fill-rule="nonzero"/><path fill="#5e17eb" d="M 461.980469 258.402344 L 461.980469 259.382812 L 461.003906 258.402344 M 393.394531 276.023438 L 391.4375 242.742188 L 393.394531 222.1875 L 392.417969 211.421875 L 389.476562 205.550781 L 396.335938 203.59375 L 400.253906 179.125 L 394.375 168.355469 L 406.132812 166.398438 L 406.132812 140.949219 L 408.09375 133.121094 L 410.050781 125.289062 L 409.074219 116.480469 L 418.871094 141.929688 L 413.972656 139.972656 L 416.910156 154.652344 L 416.910156 166.398438 L 412.992188 197.71875 L 405.152344 202.613281 L 413.972656 210.445312 L 399.273438 230.019531 L 410.050781 233.933594 L 404.175781 237.851562 L 406.132812 251.550781 L 403.195312 274.066406 L 405.152344 278.957031 L 402.214844 279.9375 L 393.394531 276.023438 M 502.152344 15.667969 L 503.132812 11.753906 L 505.09375 16.644531 L 502.152344 15.667969 " fill-opacity="1" fill-rule="nonzero"/></svg>