<svg xmlns="http://www.w3.org/2000/svg" xmlns:xlink="http://www.w3.org/1999/xlink" width="1366" zoomAndPan="magnify" viewBox="0 0 1024.5 576" height="768" preserveAspectRatio="xMidYMid meet" version="1.0"><defs><clipPath id="c9c6803da1"><path d="M 463 346 L 563 346 L 563 575.859375 L 463 575.859375 Z M 463 346 " clip-rule="nonzero"/></clipPath><clipPath id="633d9271e9"><path d="M 482 312.890625 L 541 312.890625 L 541 442 L 482 442 Z M 482 312.890625 " clip-rule="nonzero"/></clipPath></defs><g clip-path="url(#c9c6803da1)"><path fill="#181d23" d="M 479.984375 442.65625 L 480.449219 441.726562 L 481.382812 427.308594 L 483.714844 417.539062 L 485.117188 403.125 L 486.980469 405.449219 L 482.78125 422.191406 L 483.714844 433.351562 L 481.382812 442.191406 L 480.449219 447.304688 Z M 486.515625 562.179688 C 486.980469 558.925781 487.449219 556.597656 490.246094 552.878906 L 491.179688 550.554688 L 491.648438 538.925781 L 494.445312 525.902344 L 496.78125 514.277344 C 497.246094 511.484375 496.78125 508.695312 497.714844 506.371094 C 498.648438 503.113281 500.511719 499.859375 500.511719 496.140625 L 500.980469 494.277344 L 504.246094 487.300781 L 507.511719 480.792969 C 508.910156 478.929688 511.710938 478 513.578125 479.394531 C 516.375 481.257812 519.175781 483.117188 519.644531 486.835938 C 520.578125 493.347656 523.375 499.859375 525.242188 505.90625 L 528.507812 520.789062 L 530.839844 533.34375 L 533.640625 549.621094 C 534.105469 553.808594 534.105469 557.992188 536.441406 561.25 L 536.90625 564.96875 C 537.839844 569.15625 534.105469 576.132812 537.839844 576.132812 L 562.101562 576.132812 L 559.769531 570.550781 L 550.90625 563.574219 C 548.570312 561.25 548.105469 557.992188 548.570312 554.738281 L 548.570312 544.507812 C 548.105469 540.785156 548.570312 537.066406 546.707031 533.808594 L 546.707031 524.972656 L 545.304688 506.371094 L 544.839844 493.8125 L 544.371094 492.417969 L 542.507812 486.371094 L 542.507812 480.324219 L 541.574219 464.980469 L 539.707031 442.65625 L 539.238281 432.886719 L 536.90625 424.980469 L 536.441406 417.539062 L 536.90625 415.679688 L 538.304688 401.261719 L 538.304688 409.167969 L 539.238281 417.074219 L 542.972656 431.492188 L 545.304688 451.492188 L 545.773438 457.070312 C 546.238281 459.863281 551.835938 459.863281 553.238281 458.933594 C 555.570312 457.070312 556.503906 455.675781 556.503906 451.027344 L 556.503906 442.65625 L 554.636719 430.097656 L 554.636719 407.773438 L 553.238281 391.960938 L 550.90625 380.335938 L 547.636719 370.566406 L 537.839844 355.21875 L 531.773438 351.035156 L 529.90625 346.847656 L 494.914062 357.082031 L 478.582031 364.058594 L 470.183594 398.472656 L 471.117188 440.792969 L 468.785156 440.792969 L 473.449219 455.675781 C 472.515625 459.398438 475.316406 460.328125 479.515625 460.792969 L 479.050781 468.699219 L 479.050781 478 L 478.117188 498 C 477.648438 502.648438 479.050781 507.300781 476.714844 511.484375 L 476.25 513.347656 L 476.25 528.230469 L 473.917969 554.738281 C 473.449219 558.460938 473.917969 561.25 471.117188 564.96875 C 471.117188 564.96875 464.585938 575.203125 463.1875 576.132812 L 488.847656 576.132812 C 488.847656 576.132812 486.515625 565.433594 486.515625 562.179688 " fill-opacity="1" fill-rule="nonzero"/></g><path fill="#d9e3e8" d="M 472.050781 428.238281 L 471.117188 444.050781 L 468.785156 440.792969 L 467.386719 428.238281 L 467.386719 410.566406 L 466.917969 407.308594 L 467.386719 397.542969 L 469.25 386.378906 L 469.25 384.984375 L 472.984375 372.429688 L 476.25 364.058594 C 476.714844 362.195312 477.648438 361.265625 478.582031 360.335938 L 481.847656 357.546875 L 483.714844 357.082031 C 480.917969 361.730469 489.316406 359.40625 490.714844 361.730469 C 494.445312 370.566406 491.648438 380.335938 487.449219 391.03125 C 480.449219 408.703125 474.382812 412.890625 472.050781 428.238281 Z M 505.179688 314.292969 C 505.644531 315.6875 508.445312 314.292969 509.84375 313.828125 C 506.578125 327.78125 503.777344 338.941406 506.113281 352.429688 C 499.113281 358.476562 496.78125 355.21875 487.449219 354.289062 L 489.316406 352.894531 L 491.179688 343.128906 L 493.046875 336.152344 L 496.3125 324.523438 L 501.445312 316.152344 L 505.179688 314.292969 " fill-opacity="1" fill-rule="nonzero"/><path fill="#8c52ff" d="M 537.375 365.917969 C 536.441406 360.800781 535.507812 361.730469 533.175781 356.617188 L 537.375 354.753906 L 537.839844 355.21875 L 543.4375 362.195312 L 546.707031 368.242188 L 548.105469 371.496094 L 546.238281 372.894531 L 543.90625 378.472656 L 546.238281 377.542969 L 549.972656 379.871094 L 549.972656 386.378906 L 548.570312 392.890625 L 546.707031 391.03125 L 543.90625 395.21875 L 552.304688 392.425781 L 552.304688 400.796875 L 553.238281 400.796875 L 551.371094 403.125 L 553.703125 404.519531 L 551.835938 406.378906 L 554.636719 409.167969 L 549.503906 409.167969 L 551.371094 412.425781 L 549.039062 413.820312 L 550.4375 415.679688 L 549.039062 417.074219 L 549.972656 417.074219 L 551.371094 422.65625 L 549.039062 428.238281 L 553.238281 427.308594 L 554.636719 439.398438 L 552.769531 444.515625 L 554.171875 451.957031 L 545.773438 449.164062 L 544.371094 430.5625 L 543.4375 428.238281 L 542.039062 423.585938 L 540.171875 413.820312 L 539.707031 408.703125 L 539.707031 399.402344 L 541.574219 381.730469 L 539.238281 375.21875 L 533.175781 394.75 L 527.574219 398.472656 L 522.910156 402.191406 L 523.375 403.125 L 528.042969 398.9375 L 533.640625 398.472656 L 533.640625 402.191406 L 532.707031 401.261719 L 533.175781 402.65625 L 531.308594 407.773438 L 527.109375 409.167969 L 521.976562 411.496094 L 520.578125 421.261719 L 529.90625 416.144531 L 532.242188 414.75 L 531.773438 417.074219 L 529.441406 421.726562 L 529.441406 425.445312 L 528.976562 430.097656 L 532.707031 434.285156 L 529.441406 434.75 L 528.976562 433.816406 L 529.90625 434.75 L 526.640625 440.328125 L 520.109375 441.257812 L 509.84375 440.792969 L 507.976562 440.328125 L 494.445312 440.328125 L 490.714844 398.9375 C 494.914062 394.75 509.84375 379.402344 508.910156 362.195312 C 514.976562 360.335938 523.375 358.476562 531.308594 357.546875 M 475.785156 446.839844 L 475.316406 445.910156 L 476.714844 445.445312 L 472.515625 443.585938 L 472.984375 431.957031 C 474.382812 406.84375 479.050781 394.285156 479.984375 378.472656 L 483.714844 380.335938 L 484.648438 385.914062 L 485.582031 390.566406 L 485.582031 401.726562 L 484.183594 401.261719 L 483.714844 403.125 L 484.183594 409.632812 L 479.515625 416.144531 L 482.78125 417.539062 L 479.984375 424.515625 L 479.515625 425.910156 L 479.984375 441.257812 L 475.785156 446.839844 M 527.574219 352.894531 L 518.242188 352.429688 C 514.976562 349.640625 513.578125 349.175781 511.710938 345.917969 L 522.910156 320.339844 L 524.308594 320.804688 L 525.707031 322.664062 L 529.90625 346.847656 L 527.574219 352.894531 " fill-opacity="1" fill-rule="nonzero"/><path fill="#8c52ff" d="M 509.378906 353.824219 L 518.242188 353.359375 L 528.042969 356.148438 L 528.976562 358.476562 L 518.242188 357.546875 L 509.378906 355.683594 M 519.644531 316.617188 L 523.375 318.480469 L 522.910156 320.339844 L 519.175781 321.734375 M 535.507812 363.125 L 537.375 368.242188 L 536.441406 368.707031 L 535.507812 363.125 M 527.574219 352.894531 L 529.90625 355.21875 Z M 498.648438 422.191406 L 498.179688 424.515625 L 497.246094 424.050781 L 498.648438 422.191406 M 503.777344 386.84375 L 502.378906 386.378906 L 502.847656 385.914062 L 503.777344 386.84375 M 516.84375 348.242188 L 516.375 349.175781 L 515.910156 348.710938 L 516.84375 348.242188 M 501.914062 439.398438 L 501.445312 438.933594 L 501.445312 438.46875 L 501.914062 438.933594 L 501.914062 439.398438 M 535.507812 363.125 L 533.640625 362.195312 L 535.507812 363.125 M 503.777344 386.84375 L 504.246094 388.242188 L 503.777344 386.84375 M 500.046875 424.050781 L 499.578125 424.050781 M 524.777344 373.824219 L 524.308594 373.359375 L 524.777344 373.824219 M 508.445312 414.285156 L 508.445312 413.820312 L 508.445312 414.285156 " fill-opacity="1" fill-rule="nonzero"/><g clip-path="url(#633d9271e9)"><path fill="#5e17eb" d="M 509.84375 354.289062 L 509.84375 355.21875 L 518.710938 357.082031 L 528.042969 358.011719 L 527.109375 356.148438 L 518.710938 353.824219 L 514.042969 354.289062 Z M 507.976562 440.328125 L 505.179688 440.792969 L 482.316406 441.726562 L 484.183594 432.886719 L 483.714844 427.773438 L 483.25 422.65625 L 486.046875 410.097656 L 487.449219 405.449219 L 485.582031 401.726562 L 485.582031 390.566406 L 484.648438 385.914062 L 486.980469 387.3125 L 486.980469 384.984375 L 486.046875 378.472656 L 485.582031 371.496094 L 486.980469 366.382812 L 484.648438 363.125 L 482.78125 359.871094 L 483.714844 357.082031 L 487.449219 354.289062 L 501.445312 351.964844 L 504.710938 351.5 L 502.847656 334.292969 L 504.246094 325.921875 L 505.179688 323.128906 L 508.445312 314.292969 L 505.644531 314.757812 L 505.179688 314.292969 L 506.113281 312.898438 L 513.109375 312.898438 L 515.910156 313.828125 L 519.644531 315.6875 L 519.644531 321.269531 L 522.910156 320.339844 L 521.976562 328.246094 L 521.507812 329.640625 L 518.710938 335.222656 L 517.308594 338.476562 L 516.84375 339.871094 L 514.511719 344.058594 L 514.042969 345.453125 L 513.109375 345.917969 C 516.84375 349.640625 515.445312 347.777344 517.777344 349.175781 L 518.710938 351.964844 L 519.644531 351.5 L 527.574219 352.894531 L 529.90625 355.21875 L 533.175781 356.617188 L 538.773438 361.730469 L 540.640625 365.917969 L 537.375 376.148438 L 532.707031 380.335938 L 532.707031 374.753906 L 530.375 365.453125 L 533.175781 362.195312 L 530.839844 358.941406 L 529.90625 376.148438 L 528.042969 374.289062 L 528.042969 370.566406 L 524.777344 373.824219 L 525.242188 376.613281 L 524.777344 377.078125 L 523.375 375.683594 L 521.042969 376.148438 L 519.175781 378.9375 L 514.042969 384.519531 L 514.511719 378.472656 L 512.644531 369.171875 L 509.84375 363.125 L 511.710938 378.007812 L 512.175781 384.984375 L 512.175781 391.960938 L 507.046875 388.242188 L 504.246094 388.242188 L 506.578125 395.21875 L 511.710938 396.148438 L 510.3125 397.542969 L 511.710938 402.191406 L 511.246094 404.519531 L 507.976562 406.378906 L 496.78125 399.402344 L 503.3125 405.449219 L 504.710938 407.773438 L 508.910156 411.496094 L 509.378906 414.285156 L 508.445312 414.285156 L 508.445312 413.820312 L 508.445312 414.285156 L 505.644531 418.003906 L 498.648438 422.191406 L 501.445312 424.515625 L 498.179688 426.84375 C 506.113281 429.632812 503.777344 437.539062 504.710938 439.398438 L 506.113281 437.539062 L 507.976562 440.328125 " fill-opacity="1" fill-rule="nonzero"/></g><path fill="#5e17eb" d="M 503.777344 435.679688 L 503.777344 436.144531 L 503.3125 435.679688 M 471.117188 444.050781 L 470.183594 428.238281 L 471.117188 418.472656 L 470.652344 413.355469 L 469.25 410.566406 L 472.515625 409.632812 L 474.382812 398.007812 L 471.585938 392.890625 L 477.183594 391.960938 L 477.183594 379.871094 L 478.117188 376.148438 L 479.050781 372.429688 L 478.582031 368.242188 L 483.25 380.335938 L 480.917969 379.402344 L 482.316406 386.378906 L 482.316406 391.960938 L 480.449219 406.84375 L 476.714844 409.167969 L 480.917969 412.890625 L 473.917969 422.191406 L 479.050781 424.050781 L 476.25 425.910156 L 477.183594 432.421875 L 475.785156 443.121094 L 476.714844 445.445312 L 475.316406 445.910156 L 471.117188 444.050781 M 522.910156 320.339844 L 523.375 318.480469 L 524.308594 320.804688 L 522.910156 320.339844 " fill-opacity="1" fill-rule="nonzero"/></svg>