<svg xmlns="http://www.w3.org/2000/svg" xmlns:xlink="http://www.w3.org/1999/xlink" width="900" zoomAndPan="magnify" viewBox="0 0 675 525.000007" height="700" preserveAspectRatio="xMidYMid meet" version="1.0"><path fill="#181d23" d="M 273.105469 258.296875 L 274.03125 256.445312 L 275.878906 227.75 L 280.503906 208.308594 L 283.277344 179.609375 L 286.972656 184.238281 L 278.652344 217.566406 L 280.503906 239.78125 L 275.878906 257.371094 L 274.03125 267.554688 Z M 286.050781 496.214844 C 286.972656 489.734375 287.898438 485.105469 293.445312 477.699219 L 295.292969 473.070312 L 296.21875 449.925781 L 301.765625 424.007812 L 306.390625 400.863281 C 307.3125 395.308594 306.390625 389.753906 308.238281 385.125 C 310.085938 378.644531 313.785156 372.164062 313.785156 364.757812 L 314.710938 361.054688 L 321.179688 347.167969 L 327.652344 334.210938 C 330.425781 330.507812 335.972656 328.65625 339.671875 331.433594 C 345.21875 335.136719 350.765625 338.839844 351.691406 346.242188 C 353.539062 359.203125 359.085938 372.164062 362.785156 384.199219 L 369.253906 413.824219 L 373.878906 438.820312 L 379.425781 471.21875 C 380.347656 479.550781 380.347656 487.882812 384.972656 494.363281 L 385.894531 501.769531 C 387.746094 510.101562 380.347656 523.988281 387.746094 523.988281 L 435.820312 523.988281 L 431.195312 512.878906 L 413.632812 498.992188 C 409.007812 494.363281 408.085938 487.882812 409.007812 481.402344 L 409.007812 461.035156 C 408.085938 453.628906 409.007812 446.222656 405.3125 439.746094 L 405.3125 422.15625 L 402.539062 385.125 L 401.613281 360.128906 L 400.6875 357.351562 L 396.992188 345.316406 L 396.992188 333.285156 L 395.140625 302.734375 L 391.445312 258.296875 L 390.519531 238.855469 L 385.894531 223.121094 L 384.972656 208.308594 L 385.894531 204.605469 L 388.667969 175.90625 L 388.667969 191.644531 L 390.519531 207.382812 L 397.914062 236.082031 L 402.539062 275.886719 L 403.460938 286.996094 C 404.386719 292.550781 415.480469 292.550781 418.253906 290.699219 C 422.875 286.996094 424.726562 284.21875 424.726562 274.960938 L 424.726562 258.296875 L 421.027344 233.304688 L 421.027344 188.867188 L 418.253906 157.390625 L 413.632812 134.246094 L 407.160156 114.808594 L 387.746094 84.257812 L 375.726562 75.925781 L 372.027344 67.59375 L 302.691406 87.960938 L 270.332031 101.847656 L 253.691406 170.351562 L 255.539062 254.59375 L 250.917969 254.59375 L 260.164062 284.21875 C 258.316406 291.625 263.863281 293.476562 272.183594 294.402344 L 271.257812 310.140625 L 271.257812 328.65625 L 269.410156 368.460938 C 268.484375 377.71875 271.257812 386.976562 266.636719 395.308594 L 265.710938 399.011719 L 265.710938 428.636719 L 261.089844 481.402344 C 260.164062 488.808594 261.089844 494.363281 255.539062 501.769531 C 255.539062 501.769531 242.597656 522.136719 239.824219 523.988281 L 290.671875 523.988281 C 290.671875 523.988281 286.050781 502.695312 286.050781 496.214844 " fill-opacity="1" fill-rule="nonzero"/><path fill="#d9e3e8" d="M 257.390625 229.601562 L 255.539062 261.074219 L 250.917969 254.59375 L 248.144531 229.601562 L 248.144531 194.421875 L 247.21875 187.941406 L 248.144531 168.5 L 251.84375 146.28125 L 251.84375 143.503906 L 259.238281 118.511719 L 265.710938 101.847656 C 266.636719 98.144531 268.484375 96.292969 270.332031 94.441406 L 276.804688 88.886719 L 280.503906 87.960938 C 274.957031 97.21875 291.597656 92.589844 294.371094 97.21875 C 301.765625 114.808594 296.21875 134.246094 287.898438 155.539062 C 274.03125 190.71875 262.011719 199.050781 257.390625 229.601562 Z M 323.03125 2.792969 C 323.953125 5.570312 329.5 2.792969 332.273438 1.867188 C 325.804688 29.640625 320.257812 51.855469 324.878906 78.703125 C 311.011719 90.738281 306.390625 84.257812 287.898438 82.40625 L 291.597656 79.628906 L 295.292969 60.1875 L 298.992188 46.300781 L 305.464844 23.160156 L 315.632812 6.496094 L 323.03125 2.792969 " fill-opacity="1" fill-rule="nonzero"/><path fill="#8c52ff" d="M 386.820312 105.550781 C 384.972656 95.367188 383.121094 97.21875 378.5 87.035156 L 386.820312 83.332031 L 387.746094 84.257812 L 398.839844 98.144531 L 405.3125 110.179688 L 408.085938 116.660156 L 404.386719 119.4375 L 399.765625 130.546875 L 404.386719 128.695312 L 411.78125 133.324219 L 411.78125 146.28125 L 409.007812 159.242188 L 405.3125 155.539062 L 399.765625 163.871094 L 416.40625 158.316406 L 416.40625 174.980469 L 418.253906 174.980469 L 414.554688 179.609375 L 419.179688 182.386719 L 415.480469 186.089844 L 421.027344 191.644531 L 410.859375 191.644531 L 414.554688 198.125 L 409.933594 200.902344 L 412.707031 204.605469 L 409.933594 207.382812 L 411.78125 207.382812 L 414.554688 218.492188 L 409.933594 229.601562 L 418.253906 227.75 L 421.027344 251.816406 L 417.328125 262 L 420.101562 276.8125 L 403.460938 271.257812 L 400.6875 234.230469 L 398.839844 229.601562 L 396.066406 220.34375 L 392.367188 200.902344 L 391.445312 190.71875 L 391.445312 172.203125 L 395.140625 137.023438 L 390.519531 124.066406 L 378.5 162.945312 L 367.40625 170.351562 L 358.160156 177.757812 L 359.085938 179.609375 L 368.332031 171.277344 L 379.425781 170.351562 L 379.425781 177.757812 L 377.574219 175.90625 L 378.5 178.683594 L 374.800781 188.867188 L 366.480469 191.644531 L 356.3125 196.273438 L 353.539062 215.714844 L 372.027344 205.53125 L 376.652344 202.753906 L 375.726562 207.382812 L 371.105469 216.640625 L 371.105469 224.046875 L 370.179688 233.304688 L 377.574219 241.632812 L 371.105469 242.558594 L 370.179688 240.707031 L 372.027344 242.558594 L 365.558594 253.667969 L 352.613281 255.519531 L 332.273438 254.59375 L 328.578125 253.667969 L 301.765625 253.667969 L 294.371094 171.277344 C 302.691406 162.945312 332.273438 132.398438 330.425781 98.144531 C 342.445312 94.441406 359.085938 90.738281 374.800781 88.886719 M 264.785156 266.628906 L 263.863281 264.777344 L 266.636719 263.851562 L 258.316406 260.148438 L 259.238281 237.003906 C 262.011719 187.015625 271.257812 162.019531 273.105469 130.546875 L 280.503906 134.246094 L 282.351562 145.355469 L 284.199219 154.613281 L 284.199219 176.832031 L 281.425781 175.90625 L 280.503906 179.609375 L 281.425781 192.570312 L 272.183594 205.53125 L 278.652344 208.308594 L 273.105469 222.195312 L 272.183594 224.972656 L 273.105469 255.519531 L 264.785156 266.628906 M 367.40625 79.628906 L 348.917969 78.703125 C 342.445312 73.148438 339.671875 72.222656 335.972656 65.742188 L 358.160156 14.828125 L 360.933594 15.753906 L 363.707031 19.457031 L 372.027344 67.59375 L 367.40625 79.628906 " fill-opacity="1" fill-rule="nonzero"/><path fill="#8c52ff" d="M 331.351562 81.480469 L 348.917969 80.554688 L 368.332031 86.109375 L 370.179688 90.738281 L 348.917969 88.886719 L 331.351562 85.183594 M 351.691406 7.421875 L 359.085938 11.125 L 358.160156 14.828125 L 350.765625 17.605469 M 383.121094 99.996094 L 386.820312 110.179688 L 384.972656 111.105469 L 383.121094 99.996094 M 367.40625 79.628906 L 372.027344 84.257812 Z M 310.085938 217.566406 L 309.164062 222.195312 L 307.3125 221.269531 L 310.085938 217.566406 M 320.257812 147.207031 L 317.484375 146.28125 L 318.40625 145.355469 L 320.257812 147.207031 M 346.144531 70.371094 L 345.21875 72.222656 L 344.292969 71.296875 L 346.144531 70.371094 M 316.558594 251.816406 L 315.632812 250.890625 L 315.632812 249.964844 L 316.558594 250.890625 L 316.558594 251.816406 M 383.121094 99.996094 L 379.425781 98.144531 L 383.121094 99.996094 M 320.257812 147.207031 L 321.179688 149.984375 L 320.257812 147.207031 M 312.859375 221.269531 L 311.9375 221.269531 M 361.859375 121.289062 L 360.933594 120.363281 L 361.859375 121.289062 M 329.5 201.828125 L 329.5 200.902344 L 329.5 201.828125 " fill-opacity="1" fill-rule="nonzero"/><path fill="#5e17eb" d="M 332.273438 82.40625 L 332.273438 84.257812 L 349.839844 87.960938 L 368.332031 89.8125 L 366.480469 86.109375 L 349.839844 81.480469 L 340.59375 82.40625 Z M 328.578125 253.667969 L 323.03125 254.59375 L 277.730469 256.445312 L 281.425781 238.855469 L 280.503906 228.675781 L 279.578125 218.492188 L 285.125 193.496094 L 287.898438 184.238281 L 284.199219 176.832031 L 284.199219 154.613281 L 282.351562 145.355469 L 286.972656 148.132812 L 286.972656 143.503906 L 285.125 130.546875 L 284.199219 116.660156 L 286.972656 106.476562 L 282.351562 99.996094 L 278.652344 93.515625 L 280.503906 87.960938 L 287.898438 82.40625 L 315.632812 77.777344 L 322.105469 76.851562 L 318.40625 42.597656 L 321.179688 25.9375 L 323.03125 20.382812 L 329.5 2.792969 L 323.953125 3.71875 L 323.03125 2.792969 L 324.878906 0.015625 L 338.746094 0.015625 L 344.292969 1.867188 L 351.691406 5.570312 L 351.691406 16.679688 L 358.160156 14.828125 L 356.3125 30.566406 L 355.386719 33.339844 L 349.839844 44.449219 L 347.066406 50.929688 L 346.144531 53.707031 L 341.519531 62.039062 L 340.59375 64.816406 L 338.746094 65.742188 C 346.144531 73.148438 343.367188 69.445312 347.992188 72.222656 L 349.839844 77.777344 L 351.691406 76.851562 L 367.40625 79.628906 L 372.027344 84.257812 L 378.5 87.035156 L 389.59375 97.21875 L 393.292969 105.550781 L 386.820312 125.917969 L 377.574219 134.246094 L 377.574219 123.140625 L 372.953125 104.625 L 378.5 98.144531 L 373.878906 91.664062 L 372.027344 125.917969 L 368.332031 122.214844 L 368.332031 114.808594 L 361.859375 121.289062 L 362.785156 126.84375 L 361.859375 127.769531 L 359.085938 124.992188 L 354.464844 125.917969 L 350.765625 131.472656 L 340.59375 142.578125 L 341.519531 130.546875 L 337.820312 112.03125 L 332.273438 99.996094 L 334.125 114.808594 L 335.972656 129.621094 L 336.898438 143.503906 L 336.898438 157.390625 L 326.726562 149.984375 L 321.179688 149.984375 L 325.804688 163.871094 L 335.972656 165.722656 L 333.199219 168.5 L 335.972656 177.757812 L 335.046875 182.386719 L 328.578125 186.089844 L 306.390625 172.203125 L 319.332031 184.238281 L 322.105469 188.867188 L 330.425781 196.273438 L 331.351562 201.828125 L 329.5 201.828125 L 329.5 200.902344 L 329.5 201.828125 L 323.953125 209.234375 L 310.085938 217.566406 L 315.632812 222.195312 L 309.164062 226.824219 C 324.878906 232.378906 320.257812 248.113281 322.105469 251.816406 L 324.878906 248.113281 L 328.578125 253.667969 " fill-opacity="1" fill-rule="nonzero"/><path fill="#5e17eb" d="M 320.257812 244.410156 L 320.257812 245.335938 L 319.332031 244.410156 M 255.539062 261.074219 L 253.691406 229.601562 L 255.539062 210.160156 L 254.617188 199.976562 L 251.84375 194.421875 L 258.316406 192.570312 L 262.011719 169.425781 L 256.464844 159.242188 L 267.558594 157.390625 L 267.558594 133.324219 L 269.410156 125.917969 L 271.257812 118.511719 L 270.332031 110.179688 L 279.578125 134.246094 L 274.957031 132.398438 L 277.730469 146.28125 L 277.730469 157.390625 L 274.03125 187.015625 L 266.636719 191.644531 L 274.957031 199.050781 L 261.089844 217.566406 L 271.257812 221.269531 L 265.710938 224.972656 L 267.558594 237.929688 L 264.785156 259.222656 L 266.636719 263.851562 L 263.863281 264.777344 L 255.539062 261.074219 M 358.160156 14.828125 L 359.085938 11.125 L 360.933594 15.753906 L 358.160156 14.828125 " fill-opacity="1" fill-rule="nonzero"/></svg>