<svg xmlns="http://www.w3.org/2000/svg" xmlns:xlink="http://www.w3.org/1999/xlink" width="500" zoomAndPan="magnify" viewBox="0 0 375 374.999991" height="500" preserveAspectRatio="xMidYMid meet" version="1.0"><path fill="#181d23" d="M 141.492188 184.851562 L 142.15625 183.523438 L 143.484375 162.988281 L 146.804688 149.074219 L 148.792969 128.535156 L 151.449219 131.847656 L 145.476562 155.699219 L 146.804688 171.601562 L 143.484375 184.1875 L 142.15625 191.476562 Z M 150.785156 355.117188 C 151.449219 350.476562 152.113281 347.164062 156.09375 341.867188 L 157.421875 338.554688 L 158.085938 321.992188 L 162.066406 303.441406 L 165.382812 286.878906 C 166.046875 282.902344 165.382812 278.925781 166.710938 275.613281 C 168.039062 270.976562 170.691406 266.339844 170.691406 261.039062 L 171.355469 258.390625 L 176 248.453125 L 180.644531 239.175781 C 182.636719 236.527344 186.617188 235.199219 189.273438 237.1875 C 193.253906 239.839844 197.234375 242.488281 197.898438 247.789062 C 199.226562 257.0625 203.207031 266.339844 205.863281 274.953125 L 210.507812 296.152344 L 213.824219 314.039062 L 217.808594 337.226562 C 218.472656 343.191406 218.472656 349.152344 221.789062 353.792969 L 222.453125 359.089844 C 223.78125 365.054688 218.472656 374.992188 223.78125 374.992188 L 258.285156 374.992188 L 254.96875 367.042969 L 242.359375 357.105469 C 239.042969 353.792969 238.378906 349.152344 239.042969 344.515625 L 239.042969 329.941406 C 238.378906 324.640625 239.042969 319.339844 236.386719 314.703125 L 236.386719 302.113281 L 234.398438 275.613281 L 233.734375 257.726562 L 233.070312 255.738281 L 230.414062 247.125 L 230.414062 238.511719 L 229.089844 216.652344 L 226.433594 184.851562 L 225.769531 170.9375 L 222.453125 159.675781 L 221.789062 149.074219 L 222.453125 146.425781 L 224.445312 125.886719 L 224.445312 137.148438 L 225.769531 148.410156 L 231.078125 168.949219 L 234.398438 197.4375 L 235.0625 205.386719 C 235.722656 209.363281 243.6875 209.363281 245.679688 208.039062 C 248.996094 205.386719 250.324219 203.398438 250.324219 196.773438 L 250.324219 184.851562 L 247.667969 166.960938 L 247.667969 135.160156 L 245.679688 112.636719 L 242.359375 96.074219 L 237.714844 82.160156 L 223.78125 60.296875 L 215.152344 54.335938 L 212.5 48.371094 L 162.730469 62.949219 L 139.503906 72.886719 L 127.558594 121.910156 L 128.886719 182.199219 L 125.566406 182.199219 L 132.203125 203.398438 C 130.875 208.699219 134.859375 210.027344 140.832031 210.6875 L 140.167969 221.949219 L 140.167969 235.199219 L 138.839844 263.6875 C 138.175781 270.3125 140.167969 276.9375 136.847656 282.902344 L 136.183594 285.550781 L 136.183594 306.753906 L 132.867188 344.515625 C 132.203125 349.816406 132.867188 353.792969 128.886719 359.089844 C 128.886719 359.089844 119.59375 373.667969 117.605469 374.992188 L 154.101562 374.992188 C 154.101562 374.992188 150.785156 359.753906 150.785156 355.117188 " fill-opacity="1" fill-rule="nonzero"/><path fill="#d9e3e8" d="M 130.214844 164.3125 L 128.886719 186.835938 L 125.566406 182.199219 L 123.578125 164.3125 L 123.578125 139.136719 L 122.914062 134.5 L 123.578125 120.585938 L 126.230469 104.6875 L 126.230469 102.699219 L 131.539062 84.808594 L 136.183594 72.886719 C 136.847656 70.234375 138.175781 68.910156 139.503906 67.585938 L 144.148438 63.609375 L 146.804688 62.949219 C 142.820312 69.574219 154.765625 66.261719 156.757812 69.574219 C 162.066406 82.160156 158.085938 96.074219 152.113281 111.3125 C 142.15625 136.488281 133.53125 142.449219 130.214844 164.3125 Z M 177.328125 1.996094 C 177.992188 3.984375 181.972656 1.996094 183.964844 1.332031 C 179.320312 21.207031 175.335938 37.109375 178.65625 56.320312 C 168.703125 64.933594 165.382812 60.296875 152.113281 58.972656 L 154.765625 56.984375 L 157.421875 43.070312 L 160.074219 33.132812 L 164.71875 16.570312 L 172.019531 4.644531 L 177.328125 1.996094 " fill-opacity="1" fill-rule="nonzero"/><path fill="#8c52ff" d="M 223.117188 75.535156 C 221.789062 68.246094 220.460938 69.574219 217.144531 62.285156 L 223.117188 59.632812 L 223.78125 60.296875 L 231.742188 70.234375 L 236.386719 78.847656 L 238.378906 83.484375 L 235.722656 85.472656 L 232.40625 93.421875 L 235.722656 92.097656 L 241.035156 95.410156 L 241.035156 104.6875 L 239.042969 113.960938 L 236.386719 111.3125 L 232.40625 117.273438 L 244.351562 113.296875 L 244.351562 125.222656 L 245.679688 125.222656 L 243.023438 128.535156 L 246.34375 130.523438 L 243.6875 133.171875 L 247.667969 137.148438 L 240.371094 137.148438 L 243.023438 141.785156 L 239.707031 143.773438 L 241.695312 146.425781 L 239.707031 148.410156 L 241.035156 148.410156 L 243.023438 156.363281 L 239.707031 164.3125 L 245.679688 162.988281 L 247.667969 180.210938 L 245.015625 187.5 L 247.003906 198.101562 L 235.0625 194.125 L 233.070312 167.625 L 231.742188 164.3125 L 229.753906 157.6875 L 227.097656 143.773438 L 226.433594 136.488281 L 226.433594 123.234375 L 229.089844 98.0625 L 225.769531 88.785156 L 217.144531 116.609375 L 209.179688 121.910156 L 202.542969 127.210938 L 203.207031 128.535156 L 209.84375 122.574219 L 217.808594 121.910156 L 217.808594 127.210938 L 216.480469 125.886719 L 217.144531 127.875 L 214.488281 135.160156 L 208.515625 137.148438 L 201.21875 140.460938 L 199.226562 154.375 L 212.5 147.085938 L 215.816406 145.097656 L 215.152344 148.410156 L 211.835938 155.035156 L 211.835938 160.335938 L 211.171875 166.960938 L 216.480469 172.925781 L 211.835938 173.585938 L 211.171875 172.261719 L 212.5 173.585938 L 207.855469 181.539062 L 198.5625 182.863281 L 183.964844 182.199219 L 181.308594 181.539062 L 162.066406 181.539062 L 156.757812 122.574219 C 162.730469 116.609375 183.964844 94.746094 182.636719 70.234375 C 191.265625 67.585938 203.207031 64.933594 214.488281 63.609375 M 135.523438 190.8125 L 134.859375 189.488281 L 136.847656 188.824219 L 130.875 186.175781 L 131.539062 169.613281 C 133.53125 133.835938 140.167969 115.949219 141.492188 93.421875 L 146.804688 96.074219 L 148.128906 104.023438 L 149.457031 110.648438 L 149.457031 126.546875 L 147.464844 125.886719 L 146.804688 128.535156 L 147.464844 137.8125 L 140.832031 147.085938 L 145.476562 149.074219 L 141.492188 159.011719 L 140.832031 161 L 141.492188 182.863281 L 135.523438 190.8125 M 209.179688 56.984375 L 195.910156 56.320312 C 191.265625 52.347656 189.273438 51.683594 186.617188 47.046875 L 202.542969 10.609375 L 204.535156 11.269531 L 206.527344 13.921875 L 212.5 48.371094 L 209.179688 56.984375 " fill-opacity="1" fill-rule="nonzero"/><path fill="#8c52ff" d="M 183.300781 58.308594 L 195.910156 57.648438 L 209.84375 61.621094 L 211.171875 64.933594 L 195.910156 63.609375 L 183.300781 60.960938 M 197.898438 5.308594 L 203.207031 7.957031 L 202.542969 10.609375 L 197.234375 12.597656 M 220.460938 71.558594 L 223.117188 78.847656 L 221.789062 79.511719 L 220.460938 71.558594 M 209.179688 56.984375 L 212.5 60.296875 Z M 168.039062 155.699219 L 167.375 159.011719 L 166.046875 158.347656 L 168.039062 155.699219 M 175.335938 105.347656 L 173.347656 104.6875 L 174.011719 104.023438 L 175.335938 105.347656 M 193.917969 50.359375 L 193.253906 51.683594 L 192.589844 51.023438 L 193.917969 50.359375 M 172.683594 180.210938 L 172.019531 179.550781 L 172.019531 178.886719 L 172.683594 179.550781 L 172.683594 180.210938 M 220.460938 71.558594 L 217.808594 70.234375 L 220.460938 71.558594 M 175.335938 105.347656 L 176 107.335938 L 175.335938 105.347656 M 170.027344 158.347656 L 169.363281 158.347656 M 205.199219 86.796875 L 204.535156 86.136719 L 205.199219 86.796875 M 181.972656 144.4375 L 181.972656 143.773438 L 181.972656 144.4375 " fill-opacity="1" fill-rule="nonzero"/><path fill="#5e17eb" d="M 183.964844 58.972656 L 183.964844 60.296875 L 196.574219 62.949219 L 209.84375 64.273438 L 208.515625 61.621094 L 196.574219 58.308594 L 189.9375 58.972656 Z M 181.308594 181.539062 L 177.328125 182.199219 L 144.8125 183.523438 L 147.464844 170.9375 L 146.804688 163.648438 L 146.140625 156.363281 L 150.121094 138.472656 L 152.113281 131.847656 L 149.457031 126.546875 L 149.457031 110.648438 L 148.128906 104.023438 L 151.449219 106.011719 L 151.449219 102.699219 L 150.121094 93.421875 L 149.457031 83.484375 L 151.449219 76.199219 L 148.128906 71.558594 L 145.476562 66.921875 L 146.804688 62.949219 L 152.113281 58.972656 L 172.019531 55.660156 L 176.664062 54.996094 L 174.011719 30.484375 L 176 18.558594 L 177.328125 14.582031 L 181.972656 1.996094 L 177.992188 2.660156 L 177.328125 1.996094 L 178.65625 0.0078125 L 188.609375 0.0078125 L 192.589844 1.332031 L 197.898438 3.984375 L 197.898438 11.933594 L 202.542969 10.609375 L 201.21875 21.871094 L 200.554688 23.859375 L 196.574219 31.808594 L 194.582031 36.445312 L 193.917969 38.433594 L 190.601562 44.398438 L 189.9375 46.382812 L 188.609375 47.046875 C 193.917969 52.347656 191.925781 49.695312 195.246094 51.683594 L 196.574219 55.660156 L 197.898438 54.996094 L 209.179688 56.984375 L 212.5 60.296875 L 217.144531 62.285156 L 225.105469 69.574219 L 227.761719 75.535156 L 223.117188 90.109375 L 216.480469 96.074219 L 216.480469 88.121094 L 213.164062 74.871094 L 217.144531 70.234375 L 213.824219 65.597656 L 212.5 90.109375 L 209.84375 87.460938 L 209.84375 82.160156 L 205.199219 86.796875 L 205.863281 90.773438 L 205.199219 91.433594 L 203.207031 89.449219 L 199.890625 90.109375 L 197.234375 94.085938 L 189.9375 102.035156 L 190.601562 93.421875 L 187.945312 80.171875 L 183.964844 71.558594 L 185.292969 82.160156 L 186.617188 92.761719 L 187.28125 102.699219 L 187.28125 112.636719 L 179.984375 107.335938 L 176 107.335938 L 179.320312 117.273438 L 186.617188 118.597656 L 184.628906 120.585938 L 186.617188 127.210938 L 185.953125 130.523438 L 181.308594 133.171875 L 165.382812 123.234375 L 174.675781 131.847656 L 176.664062 135.160156 L 182.636719 140.460938 L 183.300781 144.4375 L 181.972656 144.4375 L 181.972656 143.773438 L 181.972656 144.4375 L 177.992188 149.738281 L 168.039062 155.699219 L 172.019531 159.011719 L 167.375 162.324219 C 178.65625 166.300781 175.335938 177.5625 176.664062 180.210938 L 178.65625 177.5625 L 181.308594 181.539062 " fill-opacity="1" fill-rule="nonzero"/><path fill="#5e17eb" d="M 175.335938 174.914062 L 175.335938 175.574219 L 174.675781 174.914062 M 128.886719 186.835938 L 127.558594 164.3125 L 128.886719 150.398438 L 128.222656 143.113281 L 126.230469 139.136719 L 130.875 137.8125 L 133.53125 121.25 L 129.550781 113.960938 L 137.511719 112.636719 L 137.511719 95.410156 L 140.167969 84.808594 L 139.503906 78.847656 L 146.140625 96.074219 L 142.820312 94.746094 L 144.8125 104.6875 L 144.8125 112.636719 L 142.15625 133.835938 L 136.847656 137.148438 L 142.820312 142.449219 L 132.867188 155.699219 L 140.167969 158.347656 L 136.183594 161 L 137.511719 170.273438 L 135.523438 185.511719 L 136.847656 188.824219 L 134.859375 189.488281 L 128.886719 186.835938 M 202.542969 10.609375 L 203.207031 7.957031 L 204.535156 11.269531 L 202.542969 10.609375 " fill-opacity="1" fill-rule="nonzero"/></svg>